<mxfile host="app.diagrams.net" agent="Mozilla/5.0 (Windows NT 10.0; Win64; x64) AppleWebKit/537.36 (KHTML, like Gecko) Chrome/128.0.0.0 Safari/537.36" version="24.7.8">
  <diagram id="C5RBs43oDa-KdzZeNtuy" name="Page-1">
    <mxGraphModel dx="880" dy="460" grid="1" gridSize="10" guides="1" tooltips="1" connect="1" arrows="1" fold="1" page="1" pageScale="1" pageWidth="827" pageHeight="1169" math="0" shadow="0">
      <root>
        <mxCell id="WIyWlLk6GJQsqaUBKTNV-0" />
        <mxCell id="WIyWlLk6GJQsqaUBKTNV-1" parent="WIyWlLk6GJQsqaUBKTNV-0" />
        <mxCell id="Ja4A6d6QBkhngnjQIqRu-0" value="&lt;font style=&quot;font-size: 35px;&quot;&gt;Start&lt;/font&gt;" style="ellipse;whiteSpace=wrap;html=1;strokeWidth=1;" parent="WIyWlLk6GJQsqaUBKTNV-1" vertex="1">
          <mxGeometry x="40" y="30" width="180" height="60" as="geometry" />
        </mxCell>
        <mxCell id="Ja4A6d6QBkhngnjQIqRu-1" value="" style="endArrow=classic;html=1;rounded=0;exitX=0.5;exitY=1;exitDx=0;exitDy=0;strokeWidth=1;" parent="WIyWlLk6GJQsqaUBKTNV-1" edge="1">
          <mxGeometry width="50" height="50" relative="1" as="geometry">
            <mxPoint x="129.5" y="90" as="sourcePoint" />
            <mxPoint x="129.5" y="140" as="targetPoint" />
          </mxGeometry>
        </mxCell>
        <mxCell id="Ja4A6d6QBkhngnjQIqRu-2" value="&lt;font style=&quot;font-size: 25px;&quot;&gt;File Operations(f)&lt;/font&gt;" style="shape=process;whiteSpace=wrap;html=1;backgroundOutline=1;strokeWidth=1;" parent="WIyWlLk6GJQsqaUBKTNV-1" vertex="1">
          <mxGeometry x="15" y="140" width="270" height="80" as="geometry" />
        </mxCell>
        <mxCell id="Ja4A6d6QBkhngnjQIqRu-3" value="" style="endArrow=classic;html=1;rounded=0;exitX=0.474;exitY=1.063;exitDx=0;exitDy=0;exitPerimeter=0;strokeWidth=1;" parent="WIyWlLk6GJQsqaUBKTNV-1" edge="1">
          <mxGeometry width="50" height="50" relative="1" as="geometry">
            <mxPoint x="129.5" y="219.99999999999994" as="sourcePoint" />
            <mxPoint x="129.51999999999998" y="280" as="targetPoint" />
          </mxGeometry>
        </mxCell>
        <mxCell id="Ja4A6d6QBkhngnjQIqRu-4" value="&lt;font style=&quot;font-size: 30px;&quot;&gt;Sorting(s)&lt;/font&gt;" style="shape=process;whiteSpace=wrap;html=1;backgroundOutline=1;strokeWidth=1;" parent="WIyWlLk6GJQsqaUBKTNV-1" vertex="1">
          <mxGeometry x="15" y="280" width="270" height="80" as="geometry" />
        </mxCell>
        <mxCell id="Ja4A6d6QBkhngnjQIqRu-5" value="" style="endArrow=classic;html=1;rounded=0;strokeWidth=1;exitX=0.437;exitY=1.025;exitDx=0;exitDy=0;exitPerimeter=0;" parent="WIyWlLk6GJQsqaUBKTNV-1" source="Ja4A6d6QBkhngnjQIqRu-4" edge="1">
          <mxGeometry width="50" height="50" relative="1" as="geometry">
            <mxPoint x="129.75" y="370" as="sourcePoint" />
            <mxPoint x="133" y="400" as="targetPoint" />
          </mxGeometry>
        </mxCell>
        <mxCell id="Ja4A6d6QBkhngnjQIqRu-7" value="&lt;font style=&quot;font-size: 21px;&quot;&gt;Calculate and display sales&lt;/font&gt;" style="rounded=0;whiteSpace=wrap;html=1;strokeWidth=1;" parent="WIyWlLk6GJQsqaUBKTNV-1" vertex="1">
          <mxGeometry x="15" y="400" width="270" height="70" as="geometry" />
        </mxCell>
        <mxCell id="Ja4A6d6QBkhngnjQIqRu-9" value="" style="endArrow=classic;html=1;rounded=0;exitX=0.5;exitY=1;exitDx=0;exitDy=0;strokeWidth=1;" parent="WIyWlLk6GJQsqaUBKTNV-1" edge="1">
          <mxGeometry width="50" height="50" relative="1" as="geometry">
            <mxPoint x="129.5" y="475" as="sourcePoint" />
            <mxPoint x="130" y="515" as="targetPoint" />
          </mxGeometry>
        </mxCell>
        <mxCell id="Ja4A6d6QBkhngnjQIqRu-10" value="&lt;font style=&quot;font-size: 18px;&quot;&gt;Display last compilation details&lt;/font&gt;" style="rounded=0;whiteSpace=wrap;html=1;strokeWidth=1;" parent="WIyWlLk6GJQsqaUBKTNV-1" vertex="1">
          <mxGeometry x="15" y="515" width="260" height="70" as="geometry" />
        </mxCell>
        <mxCell id="Ja4A6d6QBkhngnjQIqRu-11" value="" style="endArrow=classic;html=1;rounded=0;strokeWidth=1;" parent="WIyWlLk6GJQsqaUBKTNV-1" edge="1">
          <mxGeometry width="50" height="50" relative="1" as="geometry">
            <mxPoint x="129.5" y="590" as="sourcePoint" />
            <mxPoint x="130" y="640" as="targetPoint" />
          </mxGeometry>
        </mxCell>
        <mxCell id="Ja4A6d6QBkhngnjQIqRu-12" value="&lt;font style=&quot;font-size: 30px;&quot;&gt;End&lt;/font&gt;" style="ellipse;whiteSpace=wrap;html=1;strokeWidth=1;" parent="WIyWlLk6GJQsqaUBKTNV-1" vertex="1">
          <mxGeometry x="10" y="640" width="260" height="80" as="geometry" />
        </mxCell>
        <mxCell id="Ja4A6d6QBkhngnjQIqRu-13" value="&lt;font style=&quot;font-size: 23px;&quot;&gt;f&lt;/font&gt;" style="ellipse;whiteSpace=wrap;html=1;" parent="WIyWlLk6GJQsqaUBKTNV-1" vertex="1">
          <mxGeometry x="580" y="35" width="100" height="50" as="geometry" />
        </mxCell>
        <mxCell id="Ja4A6d6QBkhngnjQIqRu-14" value="" style="endArrow=classic;html=1;rounded=0;" parent="WIyWlLk6GJQsqaUBKTNV-1" target="Ja4A6d6QBkhngnjQIqRu-15" edge="1">
          <mxGeometry width="50" height="50" relative="1" as="geometry">
            <mxPoint x="630" y="90" as="sourcePoint" />
            <mxPoint x="620" y="140" as="targetPoint" />
          </mxGeometry>
        </mxCell>
        <mxCell id="Ja4A6d6QBkhngnjQIqRu-15" value="&lt;font style=&quot;font-size: 16px;&quot;&gt;Check file exists&lt;/font&gt;" style="rhombus;whiteSpace=wrap;html=1;" parent="WIyWlLk6GJQsqaUBKTNV-1" vertex="1">
          <mxGeometry x="560" y="110" width="140" height="120" as="geometry" />
        </mxCell>
        <mxCell id="Ja4A6d6QBkhngnjQIqRu-16" value="" style="endArrow=classic;html=1;rounded=0;exitX=0.5;exitY=1;exitDx=0;exitDy=0;" parent="WIyWlLk6GJQsqaUBKTNV-1" source="Ja4A6d6QBkhngnjQIqRu-15" edge="1">
          <mxGeometry width="50" height="50" relative="1" as="geometry">
            <mxPoint x="640" y="330" as="sourcePoint" />
            <mxPoint x="630" y="258" as="targetPoint" />
          </mxGeometry>
        </mxCell>
        <mxCell id="Ja4A6d6QBkhngnjQIqRu-17" value="&lt;font style=&quot;font-size: 18px;&quot;&gt;Read csv file into records&lt;/font&gt;" style="rounded=0;whiteSpace=wrap;html=1;" parent="WIyWlLk6GJQsqaUBKTNV-1" vertex="1">
          <mxGeometry x="560" y="260" width="170" height="60" as="geometry" />
        </mxCell>
        <mxCell id="Ja4A6d6QBkhngnjQIqRu-18" value="" style="endArrow=classic;html=1;rounded=0;exitX=0.459;exitY=1.067;exitDx=0;exitDy=0;exitPerimeter=0;entryX=0.459;entryY=-0.017;entryDx=0;entryDy=0;entryPerimeter=0;" parent="WIyWlLk6GJQsqaUBKTNV-1" source="Ja4A6d6QBkhngnjQIqRu-17" target="Ja4A6d6QBkhngnjQIqRu-19" edge="1">
          <mxGeometry width="50" height="50" relative="1" as="geometry">
            <mxPoint x="610" y="420" as="sourcePoint" />
            <mxPoint x="620" y="370" as="targetPoint" />
          </mxGeometry>
        </mxCell>
        <mxCell id="Ja4A6d6QBkhngnjQIqRu-19" value="&lt;font style=&quot;font-size: 17px;&quot;&gt;Perform CRUD operations&lt;/font&gt;" style="rounded=0;whiteSpace=wrap;html=1;" parent="WIyWlLk6GJQsqaUBKTNV-1" vertex="1">
          <mxGeometry x="560" y="350" width="170" height="60" as="geometry" />
        </mxCell>
        <mxCell id="Ja4A6d6QBkhngnjQIqRu-20" value="&lt;font style=&quot;font-size: 17px;&quot;&gt;Write updated records to csv&lt;/font&gt;" style="rounded=0;whiteSpace=wrap;html=1;" parent="WIyWlLk6GJQsqaUBKTNV-1" vertex="1">
          <mxGeometry x="560" y="445" width="170" height="70" as="geometry" />
        </mxCell>
        <mxCell id="Ja4A6d6QBkhngnjQIqRu-21" value="" style="endArrow=classic;html=1;rounded=0;" parent="WIyWlLk6GJQsqaUBKTNV-1" edge="1">
          <mxGeometry width="50" height="50" relative="1" as="geometry">
            <mxPoint x="640" y="410" as="sourcePoint" />
            <mxPoint x="640.5" y="450" as="targetPoint" />
          </mxGeometry>
        </mxCell>
        <mxCell id="Ja4A6d6QBkhngnjQIqRu-22" value="&lt;font style=&quot;font-size: 18px;&quot;&gt;Create csv file&lt;/font&gt;" style="rounded=0;whiteSpace=wrap;html=1;" parent="WIyWlLk6GJQsqaUBKTNV-1" vertex="1">
          <mxGeometry x="370" y="140" width="140" height="70" as="geometry" />
        </mxCell>
        <mxCell id="Ja4A6d6QBkhngnjQIqRu-23" value="" style="endArrow=classic;html=1;rounded=0;exitX=0;exitY=0.5;exitDx=0;exitDy=0;entryX=0.993;entryY=0.371;entryDx=0;entryDy=0;entryPerimeter=0;" parent="WIyWlLk6GJQsqaUBKTNV-1" source="Ja4A6d6QBkhngnjQIqRu-15" target="Ja4A6d6QBkhngnjQIqRu-22" edge="1">
          <mxGeometry width="50" height="50" relative="1" as="geometry">
            <mxPoint x="490" y="205" as="sourcePoint" />
            <mxPoint x="540" y="155" as="targetPoint" />
          </mxGeometry>
        </mxCell>
        <mxCell id="Ja4A6d6QBkhngnjQIqRu-24" value="" style="endArrow=none;html=1;rounded=0;" parent="WIyWlLk6GJQsqaUBKTNV-1" edge="1">
          <mxGeometry width="50" height="50" relative="1" as="geometry">
            <mxPoint x="440" y="240" as="sourcePoint" />
            <mxPoint x="438.5" y="210" as="targetPoint" />
          </mxGeometry>
        </mxCell>
        <mxCell id="Ja4A6d6QBkhngnjQIqRu-25" value="" style="endArrow=none;html=1;rounded=0;" parent="WIyWlLk6GJQsqaUBKTNV-1" edge="1">
          <mxGeometry width="50" height="50" relative="1" as="geometry">
            <mxPoint x="440" y="240" as="sourcePoint" />
            <mxPoint x="630" y="240" as="targetPoint" />
          </mxGeometry>
        </mxCell>
        <mxCell id="Ja4A6d6QBkhngnjQIqRu-26" value="&lt;font style=&quot;font-size: 23px;&quot;&gt;return&lt;/font&gt;" style="ellipse;whiteSpace=wrap;html=1;" parent="WIyWlLk6GJQsqaUBKTNV-1" vertex="1">
          <mxGeometry x="585" y="570" width="120" height="80" as="geometry" />
        </mxCell>
        <mxCell id="Ja4A6d6QBkhngnjQIqRu-27" value="" style="endArrow=classic;html=1;rounded=0;entryX=0.5;entryY=0;entryDx=0;entryDy=0;exitX=0.5;exitY=1;exitDx=0;exitDy=0;" parent="WIyWlLk6GJQsqaUBKTNV-1" source="Ja4A6d6QBkhngnjQIqRu-20" target="Ja4A6d6QBkhngnjQIqRu-26" edge="1">
          <mxGeometry width="50" height="50" relative="1" as="geometry">
            <mxPoint x="370" y="430" as="sourcePoint" />
            <mxPoint x="420" y="380" as="targetPoint" />
          </mxGeometry>
        </mxCell>
        <mxCell id="Ja4A6d6QBkhngnjQIqRu-30" value="&lt;font style=&quot;font-size: 23px;&quot;&gt;s&lt;/font&gt;" style="ellipse;whiteSpace=wrap;html=1;" parent="WIyWlLk6GJQsqaUBKTNV-1" vertex="1">
          <mxGeometry x="330" y="710" width="120" height="70" as="geometry" />
        </mxCell>
        <mxCell id="Ja4A6d6QBkhngnjQIqRu-31" value="&lt;font style=&quot;font-size: 22px;&quot;&gt;Sorting Records&lt;/font&gt;" style="rounded=0;whiteSpace=wrap;html=1;" parent="WIyWlLk6GJQsqaUBKTNV-1" vertex="1">
          <mxGeometry x="285" y="820" width="210" height="60" as="geometry" />
        </mxCell>
        <mxCell id="Ja4A6d6QBkhngnjQIqRu-32" value="&lt;font style=&quot;font-size: 18px;&quot;&gt;Write Sorted records to temp csv&lt;/font&gt;" style="rounded=0;whiteSpace=wrap;html=1;" parent="WIyWlLk6GJQsqaUBKTNV-1" vertex="1">
          <mxGeometry x="290" y="920" width="210" height="60" as="geometry" />
        </mxCell>
        <mxCell id="Ja4A6d6QBkhngnjQIqRu-33" value="&lt;font style=&quot;font-size: 15px;&quot;&gt;Convert temp to text file(report)&lt;/font&gt;" style="rounded=0;whiteSpace=wrap;html=1;" parent="WIyWlLk6GJQsqaUBKTNV-1" vertex="1">
          <mxGeometry x="290" y="1010" width="210" height="60" as="geometry" />
        </mxCell>
        <mxCell id="Ja4A6d6QBkhngnjQIqRu-34" value="&lt;font style=&quot;font-size: 20px;&quot;&gt;Return&lt;/font&gt;" style="ellipse;whiteSpace=wrap;html=1;" parent="WIyWlLk6GJQsqaUBKTNV-1" vertex="1">
          <mxGeometry x="330" y="1100" width="120" height="50" as="geometry" />
        </mxCell>
        <mxCell id="Ja4A6d6QBkhngnjQIqRu-35" value="" style="endArrow=classic;html=1;rounded=0;" parent="WIyWlLk6GJQsqaUBKTNV-1" edge="1">
          <mxGeometry width="50" height="50" relative="1" as="geometry">
            <mxPoint x="389.41" y="780" as="sourcePoint" />
            <mxPoint x="389" y="820" as="targetPoint" />
          </mxGeometry>
        </mxCell>
        <mxCell id="Ja4A6d6QBkhngnjQIqRu-37" value="" style="endArrow=classic;html=1;rounded=0;exitX=0.465;exitY=1.062;exitDx=0;exitDy=0;exitPerimeter=0;" parent="WIyWlLk6GJQsqaUBKTNV-1" source="Ja4A6d6QBkhngnjQIqRu-31" edge="1">
          <mxGeometry width="50" height="50" relative="1" as="geometry">
            <mxPoint x="370" y="960" as="sourcePoint" />
            <mxPoint x="382" y="920" as="targetPoint" />
          </mxGeometry>
        </mxCell>
        <mxCell id="Ja4A6d6QBkhngnjQIqRu-38" value="" style="endArrow=classic;html=1;rounded=0;entryX=0.452;entryY=0.072;entryDx=0;entryDy=0;entryPerimeter=0;" parent="WIyWlLk6GJQsqaUBKTNV-1" target="Ja4A6d6QBkhngnjQIqRu-33" edge="1">
          <mxGeometry width="50" height="50" relative="1" as="geometry">
            <mxPoint x="384.96" y="980" as="sourcePoint" />
            <mxPoint x="370.00000000000017" y="1060" as="targetPoint" />
          </mxGeometry>
        </mxCell>
        <mxCell id="Ja4A6d6QBkhngnjQIqRu-42" value="" style="endArrow=classic;html=1;rounded=0;entryX=0.468;entryY=0.004;entryDx=0;entryDy=0;exitX=0.458;exitY=1.013;exitDx=0;exitDy=0;exitPerimeter=0;entryPerimeter=0;" parent="WIyWlLk6GJQsqaUBKTNV-1" source="Ja4A6d6QBkhngnjQIqRu-33" target="Ja4A6d6QBkhngnjQIqRu-34" edge="1">
          <mxGeometry width="50" height="50" relative="1" as="geometry">
            <mxPoint x="390" y="1080" as="sourcePoint" />
            <mxPoint x="420" y="910" as="targetPoint" />
          </mxGeometry>
        </mxCell>
        <mxCell id="M8RNgm7In-3h3tjNamYX-0" value="&lt;font style=&quot;font-size: 16px;&quot;&gt;Sorted Database&lt;/font&gt;" style="shape=cylinder3;whiteSpace=wrap;html=1;boundedLbl=1;backgroundOutline=1;size=15;" vertex="1" parent="WIyWlLk6GJQsqaUBKTNV-1">
          <mxGeometry x="630" y="900" width="120" height="100" as="geometry" />
        </mxCell>
        <mxCell id="M8RNgm7In-3h3tjNamYX-1" value="" style="endArrow=classic;html=1;rounded=0;exitX=1.014;exitY=0.65;exitDx=0;exitDy=0;exitPerimeter=0;entryX=0;entryY=0.61;entryDx=0;entryDy=0;entryPerimeter=0;" edge="1" parent="WIyWlLk6GJQsqaUBKTNV-1" source="Ja4A6d6QBkhngnjQIqRu-32" target="M8RNgm7In-3h3tjNamYX-0">
          <mxGeometry width="50" height="50" relative="1" as="geometry">
            <mxPoint x="530" y="980" as="sourcePoint" />
            <mxPoint x="580" y="930" as="targetPoint" />
          </mxGeometry>
        </mxCell>
        <mxCell id="M8RNgm7In-3h3tjNamYX-2" value="&lt;font style=&quot;font-size: 16px;&quot;&gt;Input Database&lt;/font&gt;" style="shape=cylinder3;whiteSpace=wrap;html=1;boundedLbl=1;backgroundOutline=1;size=15;" vertex="1" parent="WIyWlLk6GJQsqaUBKTNV-1">
          <mxGeometry x="320" y="545" width="120" height="115" as="geometry" />
        </mxCell>
        <mxCell id="M8RNgm7In-3h3tjNamYX-3" value="" style="endArrow=classic;html=1;rounded=0;" edge="1" parent="WIyWlLk6GJQsqaUBKTNV-1">
          <mxGeometry width="50" height="50" relative="1" as="geometry">
            <mxPoint x="585" y="609.5" as="sourcePoint" />
            <mxPoint x="440" y="610" as="targetPoint" />
          </mxGeometry>
        </mxCell>
      </root>
    </mxGraphModel>
  </diagram>
</mxfile>
